<svg xmlns="http://www.w3.org/2000/svg" width="28.711" height="21.986" viewBox="0 0 28.711 21.986">
  <path id="Icon_ionic-ios-checkmark" data-name="Icon ionic-ios-checkmark" d="M38.994,14.78l-2.347-2.413a.5.5,0,0,0-.373-.16h0a.484.484,0,0,0-.373.16L19.634,28.753l-5.92-5.92a.516.516,0,0,0-.747,0l-2.373,2.373a.531.531,0,0,0,0,.76l7.467,7.467a2.361,2.361,0,0,0,1.56.76,2.474,2.474,0,0,0,1.547-.733h.013L32.436,22.146l6.572-6.606A.57.57,0,0,0,38.994,14.78Z" transform="translate(-10.434 -12.206)" fill="#00b915"/>
</svg>
