<?xml version="1.0" encoding="utf-8"?>
<!-- Generator: Adobe Illustrator 24.1.2, SVG Export Plug-In . SVG Version: 6.00 Build 0)  -->
<svg version="1.1" id="Layer_1" xmlns="http://www.w3.org/2000/svg" xmlns:xlink="http://www.w3.org/1999/xlink" x="0px" y="0px"
	 viewBox="0 0 28.7 22" style="enable-background:new 0 0 28.7 22;" xml:space="preserve">
<style type="text/css">
	.st0{fill:#EB8D02;}
</style>
<path id="Icon_ionic-ios-checkmark" class="st0" d="M28.6,2.6l-2.3-2.4C26.1,0.1,26,0,25.8,0l0,0c-0.1,0-0.3,0.1-0.4,0.2L9.2,16.5
	l-5.9-5.9c-0.2-0.2-0.5-0.2-0.7,0c0,0,0,0,0,0L0.2,13c-0.2,0.2-0.2,0.5,0,0.8c0,0,0,0,0,0l7.5,7.5c0.4,0.4,1,0.7,1.6,0.8
	c0.6-0.1,1.1-0.3,1.5-0.7h0L22,9.9l6.6-6.6C28.8,3.1,28.8,2.8,28.6,2.6z"/>
</svg>
