<svg id="Layer_1" data-name="Layer 1" xmlns="http://www.w3.org/2000/svg" viewBox="0 0 1000 363">
  <defs>
    <style>
      .cls-1 {
        opacity: 0.5;
      }

      .cls-2 {
        fill: #fff;
      }

      .cls-3 {
        fill: #eb8d02;
      }

      .cls-4 {
        fill: #dddbdc;
      }

      .cls-5 {
        fill: #f0efef;
      }

      .cls-6 {
        fill: #060304;
      }

      .cls-7 {
        fill: #c3c3c3;
      }

      .cls-8 {
        fill: #f5ca06;
      }
    </style>
  </defs>
  <g class="cls-1">
    <circle class="cls-2" cx="425.47" cy="315.83" r="2"/>
    <circle class="cls-2" cx="432.47" cy="311.83" r="1"/>
    <circle class="cls-2" cx="427.47" cy="303.83" r="2"/>
    <circle class="cls-2" cx="434.47" cy="303.83" r="2" transform="translate(-45.69 528.59) rotate(-60.05)"/>
    <circle class="cls-2" cx="435.72" cy="295.43" r="1" transform="translate(-37.79 525.47) rotate(-60.05)"/>
    <circle class="cls-2" cx="426.7" cy="292.67" r="2" transform="translate(-39.92 516.27) rotate(-60.05)"/>
    <circle class="cls-2" cx="433.47" cy="269.83" r="2" transform="translate(-76.45 295.99) rotate(-34.84)"/>
    <circle class="cls-2" cx="425.47" cy="271.83" r="1"/>
    <circle class="cls-2" cx="435.47" cy="279.83" r="2" transform="translate(-81.8 298.92) rotate(-34.84)"/>
    <circle class="cls-2" cx="426.47" cy="281.83" r="2" transform="translate(-69.58 405.25) rotate(-47.43)"/>
    <circle class="cls-2" cx="424.86" cy="288.45" r="1" transform="translate(-74.99 406.21) rotate(-47.43)"/>
    <circle class="cls-2" cx="433.47" cy="288.83" r="2" transform="translate(-72.47 412.67) rotate(-47.43)"/>
    <circle class="cls-2" cx="434.47" cy="251.83" r="2" transform="translate(-65.99 293.33) rotate(-34.84)"/>
    <circle class="cls-2" cx="426.47" cy="253.83" r="1"/>
    <circle class="cls-2" cx="436.47" cy="261.83" r="2" transform="translate(-71.34 296.27) rotate(-34.84)"/>
    <circle class="cls-2" cx="427.47" cy="263.83" r="2" transform="translate(-56 400.17) rotate(-47.43)"/>
    <circle class="cls-2" cx="434.47" cy="319.83" r="1"/>
  </g>
  <g>
    <g>
      <path d="M101,153.8v20h54.6V210H101v57H60.2V117h109v36.8Z"/>
      <path d="M336,192a76.27,76.27,0,0,1-6.3,31.1,77.22,77.22,0,0,1-17.2,24.8A80.26,80.26,0,0,1,287,264.4a85.16,85.16,0,0,1-62.8,0,80.48,80.48,0,0,1-25.5-16.5,77.37,77.37,0,0,1-17.2-24.8,79.91,79.91,0,0,1,0-62.2,77.48,77.48,0,0,1,17.2-24.8,80.48,80.48,0,0,1,25.5-16.5,85.16,85.16,0,0,1,62.8,0,80.26,80.26,0,0,1,25.5,16.5,77.32,77.32,0,0,1,17.2,24.8A76.3,76.3,0,0,1,336,192Zm-42.8,0a35.79,35.79,0,0,0-3-14.6,38.56,38.56,0,0,0-20-20,37,37,0,0,0-29.2,0,38.56,38.56,0,0,0-20,20,37,37,0,0,0,0,29.2,38.56,38.56,0,0,0,20,20,37,37,0,0,0,29.2,0,38.56,38.56,0,0,0,20-20A35.75,35.75,0,0,0,293.2,192Z"/>
      <path d="M510.8,192a76.27,76.27,0,0,1-6.3,31.1,77.22,77.22,0,0,1-17.2,24.8,80.48,80.48,0,0,1-25.5,16.5,85.16,85.16,0,0,1-62.8,0,80.48,80.48,0,0,1-25.5-16.5,77.22,77.22,0,0,1-17.2-24.8,79.91,79.91,0,0,1,0-62.2,77.32,77.32,0,0,1,17.2-24.8A80.48,80.48,0,0,1,399,119.6a85.16,85.16,0,0,1,62.8,0,80.48,80.48,0,0,1,25.5,16.5,77.32,77.32,0,0,1,17.2,24.8A76.3,76.3,0,0,1,510.8,192ZM468,192a35.79,35.79,0,0,0-3-14.6,38.56,38.56,0,0,0-20-20,37,37,0,0,0-29.2,0,38.56,38.56,0,0,0-20,20,37,37,0,0,0,0,29.2,38.56,38.56,0,0,0,20,20,37,37,0,0,0,29.2,0,38.56,38.56,0,0,0,20-20A35.75,35.75,0,0,0,468,192Z"/>
      <path d="M650.6,222a42.7,42.7,0,0,1-3.7,17.8,44.52,44.52,0,0,1-10.2,14.3,46.44,46.44,0,0,1-15.3,9.5,52.21,52.21,0,0,1-19,3.4H529.8V117h65.6a49.5,49.5,0,0,1,17.6,3.1,44.52,44.52,0,0,1,14.2,8.5,39.74,39.74,0,0,1,9.5,12.9,38.13,38.13,0,0,1,3.5,16.3,29.78,29.78,0,0,1-1.5,10,27.92,27.92,0,0,1-3.8,7.3,32,32,0,0,1-5,5.4q-2.7,2.31-5.3,4.3a60.33,60.33,0,0,1,9.5,5.5,40.14,40.14,0,0,1,8.3,7.8,39.41,39.41,0,0,1,5.9,10.4A37.09,37.09,0,0,1,650.6,222Zm-80-49.4h19.8a8.68,8.68,0,0,0,6.9-3.5,11.56,11.56,0,0,0,2.9-7.5,11.21,11.21,0,0,0-2.9-7.4,8.81,8.81,0,0,0-6.9-3.4H570.6Zm38,46.4a14.24,14.24,0,0,0-3.8-10.2,12.47,12.47,0,0,0-9.4-4H570.6v28.4h24.8a12,12,0,0,0,9.4-4.3A14.5,14.5,0,0,0,608.6,219Z"/>
      <path d="M804.6,267h-44l-6.8-17H705.4l-6.8,17h-44L720,117h19.4ZM730,185.2h-.8l-12,29.2H742Z"/>
      <path d="M943.8,171.6q0,15.21-7.5,26.3A71.71,71.71,0,0,1,918,216.6L943.4,267H897.6L879,226.2H859.8V267H819V117h68.2a59.31,59.31,0,0,1,22.1,4.1,56.31,56.31,0,0,1,18,11.4,53.09,53.09,0,0,1,16.5,39.1Zm-41.4,0a17.77,17.77,0,0,0-1.1-5.9,22.54,22.54,0,0,0-3.1-5.8,17,17,0,0,0-4.8-4.4,11.77,11.77,0,0,0-6.2-1.7H859.8v35.4h27.4a11.68,11.68,0,0,0,6.2-1.7,17.43,17.43,0,0,0,4.8-4.3,20.74,20.74,0,0,0,3.1-5.7A17.68,17.68,0,0,0,902.4,171.6Z"/>
    </g>
    <g>
      <rect class="cls-3" x="420.61" y="239.81" width="19.32" height="84.44"/>
      <g>
        <circle class="cls-4" cx="430.3" cy="192.04" r="37.88" transform="translate(-9.76 360.52) rotate(-45)"/>
        <circle class="cls-5" cx="430.3" cy="192.04" r="22.64"/>
        <path class="cls-6" d="M448.29,55.81A17.28,17.28,0,0,0,430.9,38.75h-1.36a17.27,17.27,0,0,0-17.38,17.06V89.35h0v22.26A5.35,5.35,0,0,0,417.5,117h25.43a5.36,5.36,0,0,0,5.36-5.36V89.29h-.06c0-.35.06-.69.06-1.09Z"/>
        <rect class="cls-7" x="417.87" y="116.96" width="23.53" height="19.29"/>
        <rect class="cls-7" x="441.41" y="116.96" width="1.24" height="19.29"/>
        <rect class="cls-4" x="414.13" y="136.25" width="32.27" height="13.4"/>
        <rect class="cls-7" x="416.66" y="149.65" width="27.29" height="92.37"/>
        <rect class="cls-7" x="439.93" y="240.6" width="4.01" height="6.74" rx="0.78"/>
        <rect class="cls-7" x="418.9" y="238.46" width="22.64" height="2.66"/>
        <rect class="cls-7" x="416.66" y="240.6" width="3.95" height="6.74" rx="0.78"/>
        <path class="cls-7" d="M442.68,243.37c0,1.86-4.73-1.34-11.88-1.34-6.48,0-11.9,3.2-11.9,1.34s5.32-3.39,11.9-3.39S442.68,241.5,442.68,243.37Z"/>
      </g>
    </g>
    <g>
      <rect class="cls-8" x="245.61" y="239.81" width="19.32" height="84.44"/>
      <g>
        <circle class="cls-4" cx="255.3" cy="192.04" r="37.88" transform="translate(-61.02 236.77) rotate(-45)"/>
        <circle class="cls-5" cx="255.3" cy="192.04" r="22.64"/>
        <path class="cls-6" d="M273.29,55.81A17.28,17.28,0,0,0,255.9,38.75h-1.36a17.27,17.27,0,0,0-17.38,17.06V89.35h0v22.26A5.35,5.35,0,0,0,242.5,117h25.43a5.36,5.36,0,0,0,5.36-5.36V89.29h-.06c0-.35.06-.69.06-1.09Z"/>
        <rect class="cls-7" x="242.87" y="116.96" width="23.53" height="19.29"/>
        <rect class="cls-7" x="266.41" y="116.96" width="1.24" height="19.29"/>
        <rect class="cls-4" x="239.13" y="136.25" width="32.27" height="13.4"/>
        <rect class="cls-7" x="241.66" y="149.65" width="27.29" height="92.37"/>
        <rect class="cls-7" x="264.93" y="240.6" width="4.01" height="6.74" rx="0.78"/>
        <rect class="cls-7" x="243.9" y="238.46" width="22.64" height="2.66"/>
        <rect class="cls-7" x="241.66" y="240.6" width="3.95" height="6.74" rx="0.78"/>
        <path class="cls-7" d="M267.68,243.37c0,1.86-4.73-1.34-11.88-1.34-6.48,0-11.9,3.2-11.9,1.34s5.32-3.39,11.9-3.39S267.68,241.5,267.68,243.37Z"/>
      </g>
    </g>
    <g class="cls-1">
      <circle class="cls-2" cx="424.98" cy="315.49" r="2"/>
      <circle class="cls-2" cx="431.98" cy="311.49" r="1"/>
      <circle class="cls-2" cx="426.98" cy="303.49" r="2"/>
      <circle class="cls-2" cx="433.98" cy="303.49" r="2" transform="translate(-45.65 527.99) rotate(-60.05)"/>
      <circle class="cls-2" cx="435.23" cy="295.09" r="1" transform="translate(-37.75 524.87) rotate(-60.05)"/>
      <circle class="cls-2" cx="426.21" cy="292.33" r="2" transform="translate(-39.87 515.67) rotate(-60.05)"/>
      <circle class="cls-2" cx="432.98" cy="269.49" r="2" transform="translate(-76.35 295.64) rotate(-34.84)"/>
      <circle class="cls-2" cx="424.98" cy="271.49" r="1"/>
      <circle class="cls-2" cx="434.98" cy="279.49" r="2" transform="translate(-81.7 298.58) rotate(-34.84)"/>
      <circle class="cls-2" cx="425.98" cy="281.49" r="2" transform="translate(-69.5 404.78) rotate(-47.43)"/>
      <circle class="cls-2" cx="424.36" cy="288.12" r="1" transform="translate(-74.9 405.73) rotate(-47.43)"/>
      <circle class="cls-2" cx="432.98" cy="288.49" r="2" transform="translate(-72.39 412.2) rotate(-47.43)"/>
      <circle class="cls-2" cx="433.98" cy="251.49" r="2" transform="translate(-65.88 292.99) rotate(-34.84)"/>
      <circle class="cls-2" cx="425.98" cy="253.49" r="1"/>
      <circle class="cls-2" cx="435.98" cy="261.49" r="2" transform="translate(-71.24 295.92) rotate(-34.84)"/>
      <circle class="cls-2" cx="426.98" cy="263.49" r="2" transform="translate(-55.92 399.69) rotate(-47.43)"/>
      <circle class="cls-2" cx="433.98" cy="319.49" r="1"/>
    </g>
    <g class="cls-1">
      <circle class="cls-2" cx="249.98" cy="315.49" r="2"/>
      <circle class="cls-2" cx="256.98" cy="311.49" r="1"/>
      <circle class="cls-2" cx="251.98" cy="303.49" r="2"/>
      <circle class="cls-2" cx="258.98" cy="303.49" r="2" transform="translate(-133.28 376.36) rotate(-60.05)"/>
      <circle class="cls-2" cx="260.23" cy="295.09" r="1" transform="translate(-125.38 373.24) rotate(-60.05)"/>
      <circle class="cls-2" cx="251.21" cy="292.33" r="2" transform="translate(-127.5 364.04) rotate(-60.05)"/>
      <circle class="cls-2" cx="257.98" cy="269.49" r="2" transform="translate(-107.71 195.67) rotate(-34.84)"/>
      <circle class="cls-2" cx="249.98" cy="271.49" r="1"/>
      <circle class="cls-2" cx="259.98" cy="279.49" r="2" transform="translate(-113.07 198.61) rotate(-34.84)"/>
      <circle class="cls-2" cx="250.98" cy="281.49" r="2" transform="translate(-126.11 275.9) rotate(-47.43)"/>
      <circle class="cls-2" cx="249.36" cy="288.12" r="1" transform="translate(-131.52 276.85) rotate(-47.43)"/>
      <circle class="cls-2" cx="257.98" cy="288.49" r="2" transform="translate(-129 283.32) rotate(-47.43)"/>
      <circle class="cls-2" cx="258.98" cy="251.49" r="2" transform="translate(-97.25 193.02) rotate(-34.84)"/>
      <circle class="cls-2" cx="250.98" cy="253.49" r="1"/>
      <circle class="cls-2" cx="260.98" cy="261.49" r="2" transform="translate(-102.6 195.95) rotate(-34.84)"/>
      <circle class="cls-2" cx="251.98" cy="263.49" r="2" transform="translate(-112.53 270.81) rotate(-47.43)"/>
      <circle class="cls-2" cx="258.98" cy="319.49" r="1"/>
    </g>
  </g>
</svg>
