<?xml version="1.0" encoding="utf-8"?>
<!-- Generator: Adobe Illustrator 24.1.2, SVG Export Plug-In . SVG Version: 6.00 Build 0)  -->
<svg version="1.1" id="Layer_1" xmlns="http://www.w3.org/2000/svg" xmlns:xlink="http://www.w3.org/1999/xlink" x="0px" y="0px"
	 viewBox="0 0 883.6 285.5" style="enable-background:new 0 0 883.6 285.5;" xml:space="preserve">
<style type="text/css">
	.st0{opacity:0.5;}
	.st1{fill:#FFFFFF;}
	.st2{fill:#EB8D02;}
	.st3{fill:#DDDBDC;}
	.st4{fill:#F0EFEF;}
	.st5{fill:#060304;}
	.st6{fill:#C3C3C3;}
	.st7{fill:#F5CA06;}
</style>
<g class="st0">
	<circle class="st1" cx="365.3" cy="277.1" r="2"/>
	<circle class="st1" cx="372.3" cy="273.1" r="1"/>
	<circle class="st1" cx="367.3" cy="265.1" r="2"/>
	<circle class="st1" cx="374.3" cy="265.1" r="2"/>
	<circle class="st1" cx="375.5" cy="256.7" r="1"/>
	<circle class="st1" cx="366.5" cy="253.9" r="2"/>
	<circle class="st1" cx="373.3" cy="231.1" r="2"/>
	<circle class="st1" cx="365.3" cy="233.1" r="1"/>
	<circle class="st1" cx="375.3" cy="241.1" r="2"/>
	<circle class="st1" cx="366.3" cy="243.1" r="2"/>
	<circle class="st1" cx="364.7" cy="249.7" r="1"/>
	<circle class="st1" cx="373.3" cy="250.1" r="2"/>
	<circle class="st1" cx="374.3" cy="213.1" r="2"/>
	<circle class="st1" cx="366.3" cy="215.1" r="1"/>
	<circle class="st1" cx="376.3" cy="223.1" r="2"/>
	<circle class="st1" cx="367.3" cy="225.1" r="2"/>
	<circle class="st1" cx="374.3" cy="281.1" r="1"/>
</g>
<g>
	<g>
		<path d="M40.8,115.1v20h54.6v36.2H40.8v57H0v-150h109v36.8H40.8z"/>
		<path d="M275.8,153.3c0.1,10.7-2,21.3-6.3,31.1c-4,9.3-9.9,17.7-17.2,24.8c-7.4,7.1-16,12.7-25.5,16.5c-20.2,8-42.6,8-62.8,0
			c-9.5-3.8-18.1-9.4-25.5-16.5c-7.3-7.1-13.2-15.5-17.2-24.8c-8.4-19.9-8.4-42.3,0-62.2c4.1-9.3,9.9-17.7,17.2-24.8
			c7.4-7.1,16-12.7,25.5-16.5c20.2-8,42.6-8,62.8,0c9.5,3.8,18.1,9.4,25.5,16.5c7.3,7.1,13.2,15.5,17.2,24.8
			C273.8,132,275.9,142.6,275.8,153.3z M233,153.3c0-5-1-10-3-14.6c-3.9-9-11-16.1-20-20c-9.3-4-19.9-4-29.2,0c-9,3.9-16.1,11-20,20
			c-4,9.3-4,19.9,0,29.2c3.9,9,11,16.1,20,20c9.3,4,19.9,4,29.2,0c9-3.9,16.1-11,20-20C232,163.2,233,158.3,233,153.3z"/>
		<path d="M450.6,153.3c0.1,10.7-2,21.3-6.3,31.1c-4,9.3-9.9,17.7-17.2,24.8c-7.4,7.1-16,12.7-25.5,16.5c-20.2,8-42.6,8-62.8,0
			c-9.5-3.8-18.1-9.4-25.5-16.5c-7.3-7.1-13.2-15.5-17.2-24.8c-8.4-19.9-8.4-42.3,0-62.2c4-9.3,9.9-17.7,17.2-24.8
			c7.4-7.1,16-12.7,25.5-16.5c20.2-8,42.6-8,62.8,0c9.5,3.8,18.1,9.4,25.5,16.5c7.3,7.1,13.2,15.5,17.2,24.8
			C448.6,132,450.7,142.6,450.6,153.3z M407.8,153.3c0-5-1-10-3-14.6c-3.9-9-11-16.1-20-20c-9.3-4-19.9-4-29.2,0
			c-9,3.9-16.1,11-20,20c-4,9.3-4,19.9,0,29.2c3.9,9,11,16.1,20,20c9.3,4,19.9,4,29.2,0c9-3.9,16.1-11,20-20
			C406.8,163.2,407.8,158.3,407.8,153.3z"/>
		<path d="M590.4,183.3c0.1,6.1-1.2,12.2-3.7,17.8c-2.4,5.4-5.9,10.3-10.2,14.3c-4.4,4.1-9.6,7.4-15.3,9.5c-6.1,2.3-12.5,3.5-19,3.4
			h-72.6v-150h65.6c6,0,12,1,17.6,3.1c5.2,1.9,10,4.8,14.2,8.5c4,3.6,7.2,8,9.5,12.9c2.4,5.1,3.5,10.7,3.5,16.3
			c0.1,3.4-0.4,6.8-1.5,10c-0.9,2.6-2.2,5.1-3.8,7.3c-1.5,2-3.1,3.8-5,5.4c-1.8,1.5-3.6,3-5.3,4.3c3.3,1.5,6.5,3.4,9.5,5.5
			c3.1,2.2,5.9,4.8,8.3,7.8c2.5,3.1,4.5,6.7,5.9,10.4C589.7,174.1,590.5,178.6,590.4,183.3z M510.4,133.9h19.8
			c2.7,0,5.3-1.3,6.9-3.5c1.8-2.1,2.9-4.7,2.9-7.5c0-2.7-1.1-5.4-2.9-7.4c-1.7-2.1-4.2-3.4-6.9-3.4h-19.8V133.9z M548.4,180.3
			c0.1-3.8-1.2-7.4-3.8-10.2c-2.4-2.6-5.8-4.1-9.4-4h-24.8v28.4h24.8c3.6,0.1,7.1-1.5,9.4-4.3C547.1,187.4,548.4,183.9,548.4,180.3z
			"/>
		<path d="M744.4,228.3h-44l-6.8-17h-48.4l-6.8,17h-44l65.4-150h19.4L744.4,228.3z M669.8,146.5H669l-12,29.2h24.8L669.8,146.5z"/>
		<path d="M883.6,132.9c0,10.1-2.5,18.9-7.5,26.3c-4.9,7.3-11.1,13.6-18.3,18.7l25.4,50.4h-45.8l-18.6-40.8h-19.2v40.8h-40.8v-150
			H827c7.6-0.1,15.1,1.3,22.1,4.1c6.7,2.6,12.8,6.5,18,11.4C877.8,103.9,883.8,118.1,883.6,132.9z M842.2,132.9c0-2-0.4-4-1.1-5.9
			c-0.7-2.1-1.8-4-3.1-5.8c-1.3-1.8-2.9-3.3-4.8-4.4c-1.9-1.1-4-1.7-6.2-1.7h-27.4v35.4H827c2.2,0,4.3-0.6,6.2-1.7
			c1.9-1.1,3.5-2.6,4.8-4.3c1.3-1.7,2.4-3.6,3.1-5.7C841.8,136.9,842.2,134.9,842.2,132.9L842.2,132.9z"/>
	</g>
	<g>
		<rect x="360.4" y="201.1" class="st2" width="19.3" height="84.4"/>
		<g>
			<circle class="st3" cx="370.1" cy="153.3" r="37.9"/>
			<circle class="st4" cx="370.1" cy="153.3" r="22.6"/>
			<path class="st5" d="M388.1,17.1C388,7.6,380.2-0.1,370.7,0h-1.4c-9.5-0.1-17.3,7.6-17.4,17.1v33.5l0,0v22.3c0,3,2.4,5.4,5.3,5.4
				c0,0,0,0,0,0h25.4c3,0,5.4-2.4,5.4-5.4V50.5H388c0-0.3,0.1-0.7,0.1-1.1L388.1,17.1z"/>
			<rect x="357.7" y="78.2" class="st6" width="23.5" height="19.3"/>
			<rect x="381.2" y="78.2" class="st6" width="1.2" height="19.3"/>
			<rect x="353.9" y="97.5" class="st3" width="32.3" height="13.4"/>
			<rect x="356.5" y="110.9" class="st6" width="27.3" height="92.4"/>
			<path class="st6" d="M380.5,201.9h2.5c0.4,0,0.8,0.3,0.8,0.8v5.2c0,0.4-0.3,0.8-0.8,0.8h-2.5c-0.4,0-0.8-0.3-0.8-0.8v-5.2
				C379.7,202.2,380.1,201.9,380.5,201.9z"/>
			<rect x="358.7" y="199.7" class="st6" width="22.6" height="2.7"/>
			<path class="st6" d="M357.2,201.9h2.4c0.4,0,0.8,0.3,0.8,0.8v5.2c0,0.4-0.3,0.8-0.8,0.8h-2.4c-0.4,0-0.8-0.3-0.8-0.8v-5.2
				C356.5,202.2,356.8,201.9,357.2,201.9z"/>
			<path class="st6" d="M382.5,204.6c0,1.9-4.7-1.3-11.9-1.3c-6.5,0-11.9,3.2-11.9,1.3s5.3-3.4,11.9-3.4S382.5,202.8,382.5,204.6z"
				/>
		</g>
	</g>
	<g>
		<rect x="185.4" y="201.1" class="st7" width="19.3" height="84.4"/>
		<g>
			
				<ellipse transform="matrix(0.7071 -0.7071 0.7071 0.7071 -51.2489 182.8518)" class="st3" cx="195.1" cy="153.3" rx="37.9" ry="37.9"/>
			<circle class="st4" cx="195.1" cy="153.3" r="22.6"/>
			<path class="st5" d="M213.1,17.1C213,7.6,205.2-0.1,195.7,0h-1.4c-9.5-0.1-17.3,7.6-17.4,17.1v33.5l0,0v22.3c0,3,2.4,5.4,5.3,5.4
				c0,0,0,0,0,0h25.4c3,0,5.4-2.4,5.4-5.4V50.5H213c0-0.3,0.1-0.7,0.1-1.1L213.1,17.1z"/>
			<rect x="182.7" y="78.2" class="st6" width="23.5" height="19.3"/>
			<rect x="206.2" y="78.2" class="st6" width="1.2" height="19.3"/>
			<rect x="178.9" y="97.5" class="st3" width="32.3" height="13.4"/>
			<rect x="181.5" y="110.9" class="st6" width="27.3" height="92.4"/>
			<path class="st6" d="M205.5,201.9h2.5c0.4,0,0.8,0.3,0.8,0.8v5.2c0,0.4-0.3,0.8-0.8,0.8h-2.5c-0.4,0-0.8-0.3-0.8-0.8v-5.2
				C204.7,202.2,205.1,201.9,205.5,201.9z"/>
			<rect x="183.7" y="199.7" class="st6" width="22.6" height="2.7"/>
			<path class="st6" d="M182.2,201.9h2.4c0.4,0,0.8,0.3,0.8,0.8v5.2c0,0.4-0.3,0.8-0.8,0.8h-2.4c-0.4,0-0.8-0.3-0.8-0.8v-5.2
				C181.5,202.2,181.8,201.9,182.2,201.9z"/>
			<path class="st6" d="M207.5,204.6c0,1.9-4.7-1.3-11.9-1.3c-6.5,0-11.9,3.2-11.9,1.3s5.3-3.4,11.9-3.4S207.5,202.8,207.5,204.6z"
				/>
		</g>
	</g>
	<g class="st0">
		<circle class="st1" cx="364.8" cy="276.7" r="2"/>
		<circle class="st1" cx="371.8" cy="272.7" r="1"/>
		<circle class="st1" cx="366.8" cy="264.7" r="2"/>
		<circle class="st1" cx="373.8" cy="264.7" r="2"/>
		<circle class="st1" cx="375" cy="256.3" r="1"/>
		<circle class="st1" cx="366" cy="253.6" r="2"/>
		<circle class="st1" cx="372.8" cy="230.7" r="2"/>
		<circle class="st1" cx="364.8" cy="232.7" r="1"/>
		<circle class="st1" cx="374.8" cy="240.7" r="2"/>
		<circle class="st1" cx="365.8" cy="242.7" r="2"/>
		<circle class="st1" cx="364.2" cy="249.4" r="1"/>
		<circle class="st1" cx="372.8" cy="249.7" r="2"/>
		<circle class="st1" cx="373.8" cy="212.7" r="2"/>
		<circle class="st1" cx="365.8" cy="214.7" r="1"/>
		<circle class="st1" cx="375.8" cy="222.7" r="2"/>
		<circle class="st1" cx="366.8" cy="224.7" r="2"/>
		<circle class="st1" cx="373.8" cy="280.7" r="1"/>
	</g>
	<g class="st0">
		<circle class="st1" cx="189.8" cy="276.7" r="2"/>
		<circle class="st1" cx="196.8" cy="272.7" r="1"/>
		<circle class="st1" cx="191.8" cy="264.7" r="2"/>
		<circle class="st1" cx="198.8" cy="264.7" r="2"/>
		<circle class="st1" cx="200" cy="256.3" r="1"/>
		<circle class="st1" cx="191" cy="253.6" r="2"/>
		<circle class="st1" cx="197.8" cy="230.7" r="2"/>
		<circle class="st1" cx="189.8" cy="232.7" r="1"/>
		<circle class="st1" cx="199.8" cy="240.7" r="2"/>
		<circle class="st1" cx="190.8" cy="242.7" r="2"/>
		<circle class="st1" cx="189.2" cy="249.4" r="1"/>
		<circle class="st1" cx="197.8" cy="249.7" r="2"/>
		<circle class="st1" cx="198.8" cy="212.7" r="2"/>
		<circle class="st1" cx="190.8" cy="214.7" r="1"/>
		<circle class="st1" cx="200.8" cy="222.7" r="2"/>
		<circle class="st1" cx="191.8" cy="224.7" r="2"/>
		<circle class="st1" cx="198.8" cy="280.7" r="1"/>
	</g>
</g>
</svg>
