<?xml version="1.0" encoding="utf-8"?>
<!-- Generator: Adobe Illustrator 24.1.2, SVG Export Plug-In . SVG Version: 6.00 Build 0)  -->
<svg version="1.1" id="Layer_1" xmlns="http://www.w3.org/2000/svg" xmlns:xlink="http://www.w3.org/1999/xlink" x="0px" y="0px"
	 viewBox="0 0 143.8 203.2" style="enable-background:new 0 0 143.8 203.2;" xml:space="preserve">
<style type="text/css">
	.st0{fill:#D27A28;}
	.st1{fill:#A11D21;}
	.st2{fill:#EDC148;}
	.st3{fill:#EA8D23;stroke:#FFFFFF;stroke-miterlimit:10;}
	.st4{fill:none;stroke:#FFFFFF;stroke-miterlimit:10;}
	.st5{fill:#FFFFFF;}
</style>
<polygon class="st0" points="70.7,4 62.4,15.5 79,15.5 "/>
<polygon class="st1" points="120.1,171.5 125.5,191.9 99.8,177 "/>
<rect x="74.2" y="123.9" transform="matrix(0.9625 -0.2713 0.2713 0.9625 -37.4086 31.1243)" class="st1" width="39.3" height="54.1"/>
<rect x="19.9" y="130.3" transform="matrix(0.2713 -0.9625 0.9625 0.2713 -110.1429 154.5031)" class="st1" width="54" height="39.3"/>
<circle class="st2" cx="70.8" cy="70.8" r="53.3"/>
<polygon class="st0" points="83.8,4.4 73.6,14.1 89.9,17.2 "/>
<polygon class="st0" points="96.5,8 84.6,15.8 100.1,21.7 "/>
<polygon class="st0" points="108.2,14.4 94.8,19.5 108.6,28.8 "/>
<polygon class="st0" points="118.8,22.7 104.3,25.5 117.2,37.4 "/>
<polygon class="st0" points="127.1,32.9 112.3,32.7 122.6,46.9 "/>
<polygon class="st0" points="133.3,44.6 118.8,41.8 126.3,57.7 "/>
<polygon class="st0" points="137.2,57.5 124,50.8 126.9,68.1 "/>
<polygon class="st0" points="138.4,70.8 126.6,62 126.6,79.6 "/>
<polygon class="st0" points="137.5,84.2 127.9,73 123.9,90.1 "/>
<polygon class="st0" points="133.3,96.7 125.9,83.9 118.9,100 "/>
<polygon class="st0" points="127.2,108.1 122.9,93.9 112.4,108 "/>
<polygon class="st0" points="119,118.2 116,103.8 104.3,116.8 "/>
<polygon class="st0" points="109.5,127.1 109.5,112.3 95.4,122.7 "/>
<polygon class="st0" points="97,133.3 100.4,118.9 84.3,125.8 "/>
<polygon class="st0" points="84.5,137.2 89.7,123.4 72.8,128.2 "/>
<polygon class="st0" points="70.3,138.6 79.1,126.7 61.5,126.7 "/>
<polygon class="st0" points="57.6,4.4 67.9,14.1 51.6,17.2 "/>
<polygon class="st0" points="44.9,8 56.8,15.8 41.3,21.7 "/>
<polygon class="st0" points="33.2,14.4 46.7,19.6 32.9,28.8 "/>
<polygon class="st0" points="22.7,22.7 37.2,25.5 24.3,37.4 "/>
<polygon class="st0" points="14.4,32.9 29.1,32.7 18.9,47 "/>
<polygon class="st0" points="8.2,44.7 22.6,41.8 15.1,57.7 "/>
<polygon class="st0" points="4.2,57.5 17.4,50.8 14.5,68.1 "/>
<polygon class="st0" points="3,70.8 14.9,62 14.9,79.6 "/>
<polygon class="st0" points="4,84.2 13.5,73 17.5,90.1 "/>
<polygon class="st0" points="8.1,96.7 15.5,83.9 22.5,100 "/>
<polygon class="st0" points="14.3,108.1 18.5,93.9 29,108 "/>
<polygon class="st0" points="22.5,118.2 25.5,103.8 37.2,116.8 "/>
<polygon class="st0" points="32,127.1 32,112.3 46.1,122.7 "/>
<polygon class="st0" points="44.5,133.3 41.1,118.9 57.2,125.8 "/>
<polygon class="st0" points="57,137.2 51.8,123.4 68.6,128.2 "/>
<circle class="st3" cx="71" cy="70.8" r="55.9"/>
<polygon class="st1" points="82.2,181.9 87.8,202.3 102.6,176.5 "/>
<polygon class="st1" points="58.6,181 53.1,201.4 38.2,175.6 "/>
<polygon class="st1" points="20.7,170.6 15.3,191 41.1,176.1 "/>
<circle class="st4" cx="70.4" cy="71.4" r="51.3"/>
<g>
	<g>
		<path class="st5" d="M63.7,64.1h-2.8l-1.2,7.2h-3.5l1.2-7.2h-3.9v-3.2h4.4l0.8-4.6h-3.9V53h4.4l1.2-7.3h3.5L62.7,53h2.9l1.2-7.3
			h3.5L69,53h4.1v3.2h-4.6l-0.8,4.6h4v3.2h-4.5L66,71.3h-3.4L63.7,64.1z M61.4,60.9h2.8l0.8-4.6h-2.8L61.4,60.9z"/>
		<path class="st5" d="M88.5,71.3h-6V52.4l-5.8,1.7v-4.5l11.2-3.9h0.6V71.3z"/>
	</g>
	<g>
		<path class="st5" d="M50.8,84h-4.4v11.8h-3.5V84h-4.3v-2.7h12.1L50.8,84z"/>
		<path class="st5" d="M64.2,88.8c0,1.3-0.2,2.6-0.8,3.8c-0.5,1-1.3,1.9-2.2,2.5c-2,1.2-4.5,1.2-6.6,0c-1-0.6-1.7-1.4-2.2-2.4
			c-0.6-1.1-0.8-2.4-0.8-3.6v-0.8c0-1.3,0.2-2.6,0.8-3.8c0.5-1,1.3-1.9,2.2-2.5c2-1.2,4.6-1.2,6.6,0c1,0.6,1.8,1.5,2.2,2.5
			c0.6,1.2,0.8,2.4,0.8,3.7L64.2,88.8z M60.7,88.2c0.1-1.1-0.2-2.2-0.7-3.2c-0.4-0.7-1.2-1.1-2.1-1.1c-1.8,0-2.7,1.3-2.8,3.9v1.1
			c-0.1,1.1,0.2,2.3,0.7,3.3c0.4,0.7,1.2,1.2,2.1,1.1c0.8,0,1.6-0.4,2-1.1c0.5-1,0.8-2.1,0.7-3.2L60.7,88.2z"/>
		<path class="st5" d="M66,95.8V81.3h4.7c1.2,0,2.4,0.3,3.4,0.9c1,0.6,1.8,1.4,2.4,2.5c0.6,1.1,0.9,2.3,0.9,3.6v0.7
			c0,1.2-0.3,2.5-0.8,3.6c-0.5,1-1.3,1.9-2.3,2.5c-1,0.6-2.2,0.9-3.4,0.9H66z M69.5,84v9.1h1.2c0.9,0,1.7-0.4,2.3-1.1
			c0.6-0.9,0.9-2.1,0.8-3.2v-0.6c0.1-1.1-0.2-2.2-0.8-3.2c-0.6-0.7-1.4-1.1-2.3-1H69.5z"/>
		<path class="st5" d="M87.4,93.1h-4.8l-0.8,2.7h-3.7l5.3-14.5h3.3L92,95.8h-3.7L87.4,93.1z M83.4,90.4h3.1l-1.6-5L83.4,90.4z"/>
		<path class="st5" d="M96.9,87.6l2.7-6.3h3.8l-4.7,9.3v5.2h-3.5v-5.2l-4.7-9.3h3.8L96.9,87.6z"/>
	</g>
</g>
</svg>
